<svg width="39" height="43" fill="none" xmlns="http://www.w3.org/2000/svg">
  <path d="M8.03334 28.6667v-12.9c.00245-.7905.64283-1.4309 1.43333-1.4334H33.8333V2.15001C33.8309 1.35951 33.1905.719124 32.4.716675H10.1833V7.88334c0 .79155-.64174 1.43333-1.4333 1.43333H.866673V40.85c.002449.7905.642827 1.4309 1.433337 1.4333H32.4c.7905-.0024 1.4309-.6428 1.4333-1.4333V30.1H9.46667c-.7905-.0024-1.43088-.6428-1.43333-1.4333z" fill="#9BC9FF"/>
  <path d="M36.7 13.6167h-2.15V2.15C34.55.962671 33.5873 0 32.4 0H10.1833c-.015 0-.0279.0069987-.043.00804851-.0577.00384919-.1151.01469719-.17041.03219399-.0231.0059489-.0455.0129476-.06754.021346-.07524.0307943-.14452.0745365-.20506.1291255L.38062 8.79071c-.064038.06124-.115828.13403-.152572.21486-.010498.02345-.019596.04725-.027294.07174-.023446.06439-.037443.13228-.041293.20051 0 .01505-.009448.0287-.009448.04375V40.85c0 1.1873.962667 2.15 2.149997 2.15H32.4c1.1873 0 2.15-.9627 2.15-2.15V30.8167h2.15c1.1873 0 2.15-.9627 2.15-2.15v-12.9c0-1.1874-.9627-2.15-2.15-2.15zM9.46668 2.35366v5.52967c0 .39578-.32089.71667-.71667.71667H2.69999l6.76669-6.24634zM33.1167 40.85c0 .3958-.3209.7167-.7167.7167H2.30001c-.39577 0-.71666-.3209-.71666-.7167V10.0333h7.16666c1.18733 0 2.14999-.96264 2.14999-2.14997v-6.45h21.5c.3958 0 .7167.32089.7167.71667v11.4667H9.46668c-1.18733 0-2.15.9626-2.15 2.15v12.9c0 1.1873.96267 2.15 2.15 2.15H33.1167V40.85zm4.3-12.1833c0 .3957-.3209.7166-.7167.7166H9.46668c-.39578 0-.71667-.3209-.71667-.7166v-12.9c0-.3958.32089-.7167.71667-.7167H36.7c.3958 0 .7167.3209.7167.7167v12.9z" fill="#1E81CE"/>
  <path d="M15.9167 17.2001h-4.3c-.3958 0-.7167.3209-.7167.7166v8.6c0 .3958.3209.7167.7167.7167s.7166-.3209.7166-.7167v-3.5833h3.5834c1.1873 0 2.15-.9627 2.15-2.15v-1.4333c0-1.1874-.9627-2.15-2.15-2.15zm.7166 3.5833c0 .3958-.3208.7167-.7166.7167h-3.5834v-2.8667h3.5834c.3958 0 .7166.3209.7166.7167v1.4333zm6.45-3.5833h-2.8666c-.3958 0-.7167.3209-.7167.7166v8.6c0 .3958.3209.7167.7167.7167h2.8666c1.9782-.0024 3.5809-1.6051 3.5834-3.5833v-2.8667c-.0025-1.9782-1.6052-3.5809-3.5834-3.5833zm2.15 6.45c0 1.1873-.9626 2.15-2.15 2.15h-2.15v-7.1667h2.15c1.1874 0 2.15.9627 2.15 2.15v2.8667zm9.3167-6.45h-5.7333c-.3958 0-.7167.3209-.7167.7166v8.6c0 .3958.3209.7167.7167.7167s.7167-.3209.7167-.7167v-3.5833h3.5833c.3958 0 .7167-.3209.7167-.7167 0-.3957-.3209-.7166-.7167-.7166h-3.5833v-2.8667H34.55c.3958 0 .7167-.3209.7167-.7167 0-.3957-.3209-.7166-.7167-.7166z" fill="#1E81CE"/>
</svg>
